<svg width="40" height="40" viewBox="0 0 40 40" fill="none" xmlns="http://www.w3.org/2000/svg">
  <circle cx="20" cy="20" r="18" fill="#059669" stroke="#ffffff" stroke-width="2"/>
  <path d="M20 7L10 16.5V30C10 30.55 10.45 31 11 31H16.5V23.5C16.5 22.95 16.95 22.5 17.5 22.5H22.5C23.05 22.5 23.5 22.95 23.5 23.5V31H29C29.55 31 30 30.55 30 30V16.5L20 7Z" fill="#ffffff"/>
  <path d="M20 10L12 17.5V29H15.5V22.5C15.5 21.4 16.4 20.5 17.5 20.5H22.5C23.6 20.5 24.5 21.4 24.5 22.5V29H28V17.5L20 10Z" fill="#10b981"/>
</svg> 